<svg xmlns="http://www.w3.org/2000/svg" xml:space="preserve" width="1500" height="1500" data-id="lg_NLK5hI0iLD6sne06Wb" data-version="1" viewBox="0 0 1500 1500"><path fill="#fff" stroke="transparent" d="M0 0h1500v1500H0z"/><g data-padding="20"><g transform="translate(-622.913 -636.062)scale(1.78645)"><rect width="368.484" height="108.48" x="162.826" y="324.559" fill="none" rx="0" ry="0" transform="translate(506.58 372.58)"/><path fill="#1e7923" d="M683.708 752.52v29.02h-10.96V714.6h31.17v9.94h-20.21v18.05h19.08v9.93Zm36.42 14.02-2.44 15h-11.3l11.35-66.94h19.03l11.34 66.94h-11.25l-2.39-15Zm5.48-42-2.44 17.3-2.06 14.76h12.33l-2.02-14.76-2.43-17.3Zm37.59 33.84v23.16h-10.96V714.6h17.95q10.08 0 14.6 3.56 4.52 3.57 4.9 11.77.33 3.89.3 6.66-.02 2.76-.3 6.51-.24 5.2-2.39 8.46-2.16 3.26-6.61 4.95l10.92 25.03h-11.72l-9.65-23.16Zm6.99-33.84h-6.99v23.9h6.85q4.45 0 6.47-1.21 2.01-1.22 2.2-3.52.61-7.22 0-14.39-.19-2.34-2.2-3.56-2.02-1.22-6.33-1.22m37.26 36.61v20.39h-10.96V714.6h17.39l4.5 25.74.51 31.21h1.74l.47-31.21 4.54-25.74h17.35v66.94h-11.02v-20.39l2.16-36.61h-1.83l-2.44 37.31-4.36 19.59h-11.48l-4.32-19.59-2.57-37.31h-1.69Zm61.65 21.14q-10.6 0-15.22-3.63-4.61-3.64-4.71-12.07-.56-26.02 0-51.99h10.97q-.33 12.84-.33 27.02t.19 27.07q0 4.41 9.1 4.41 8.85 0 8.85-4.41.24-12.89.26-27.07.03-14.18-.26-27.02h10.97q.57 25.97 0 51.99-.04 8.43-4.68 12.07-4.64 3.63-15.14 3.63m35.77-26.35.89 25.6h-10.64V714.6h16.92l5.44 21.33 6.56 35.67h2.58l-2.01-29.2-.8-27.8h10.64v66.94h-17.63l-5.76-22.31-5.35-34.74h-2.67Zm48.47-41.34v66.94h-10.97V714.6Zm28.82 9.94v57h-10.97v-57h-12.75v-9.94h36.42v9.94Zm39.98 40.69v16.31h-11.06v-16.31l-15.09-50.63h11.29l5.07 16.74 3.04 21.42h2.58l2.95-21.42 5.07-16.74h11.29Z"/><rect width="358.162" height="23.73" x="167.987" y="366.934" fill="none" rx="0" ry="0" transform="translate(506.58 425.16)"/><path fill="#1e7923" d="M684.538 801.95h.41l-.11-3.69h-9.45v.53h1.64v11.24h-1.64v.53h9.45l.11-3.69h-.41l-.29.96q-.51 1.75-1.52 2.1-.31.1-.66.1h-3.28v-5.52h4.23v-.59h-4.23v-5.13h3.28q1.48 0 2.12 1.99.04.12.06.2Zm6.05 8.1h-.93v-4.43q.06-1.81 1.25-2.69.56-.41 1.11-.41 1.03 0 1.42 1.13.16.49.16 1.11v4.06q0 .94-.45 1.13-.29.1-.99.1v.51h4.41q0-.45-.3-.49-.09-.02-.21-.02h-.92v-5.25q.33-1.5 1.45-2.09.43-.21.82-.21 1.05 0 1.48 1.09.21.51.21 1.17v4.06q0 .94-.46 1.13-.28.1-.98.1v.51h4.53q0-.45-.31-.49-.08-.02-.2-.02h-1.05v-5.09q0-2.11-1.37-2.95-.62-.37-1.33-.37-1.56 0-2.5 1.46-.25.37-.42.78-.36-1.62-1.62-2.1-.36-.14-.75-.14-1.48 0-2.44 1.25-.35.45-.56 1.01l-.08-2.05h-2.97v.51h1.53v6.46q0 .94-.53 1.13-.31.1-1 .1v.51h4.51q0-.43-.31-.49-.1-.02-.2-.02m17.16 3.9h-1.44v-4.25q1.13.98 2.61 1.07 1.82 0 3.05-1.38 1.19-1.33 1.19-3.38 0-2.34-1.29-3.55-.9-.82-2.19-.82-1.99 0-2.98 1.58-.24.41-.41.86l-.1-2.23h-2.95v.51h1.54v10.35q0 .95-.54 1.13-.3.11-1 .11v.51h5.02q0-.45-.3-.49-.09-.02-.21-.02m1.27-11.49q1.79 0 2.26 2.24.14.67.14 1.51 0 3.02-1.62 3.82-.47.22-1.02.22-1.58 0-2.18-1.66-.31-.84-.31-1.99 0-2.66 1.38-3.69.61-.45 1.35-.45m7.53 3.73q0-3.18 1.74-3.87.45-.17.94-.17 2.28 0 2.65 2.87.06.5.06 1.09 0 3.45-1.89 4.04-.36.1-.75.1-2.08 0-2.61-2.46-.14-.71-.14-1.6m2.75-4.55q-1.97 0-3.29 1.35-1.21 1.25-1.21 3.12 0 2.59 1.89 3.88 1.15.78 2.54.78 1.97 0 3.27-1.4 1.18-1.27 1.18-3.18 0-2.58-1.9-3.83-1.13-.72-2.48-.72m7.85.71h1.54v-.51h-4.06v.51h.92l2.56 6.87q.44 1.17.89 1.35.22.08.55.08h.41l1.78-5.37 1.38 3.94q.39 1.15.8 1.35.2.08.55.08h.33l2.48-7.56q.21-.64.49-.72.11-.02.23-.02.45 0 .51-.29.02-.1.02-.22h-3.03v.51h1.43l-2.27 7.07-2.4-7.07h1.43v-.51h-3.16l.93 2.6-1.7 5.04Zm16.49-.2q1.43 0 1.91 1.21.16.39.16.84 0 1.03-.98 1.25-.52.11-1.46.09l-2.17-.06q.1-2.36 1.53-3.08.48-.25 1.01-.25m3.57 6.44-.52-.18q-.71 1.56-2.31 1.76-.21.02-.39.02-2.16 0-2.71-2.56-.16-.72-.18-1.58l2.46.04q2.5.04 3.22-.47.55-.41.55-1.17 0-1.39-1.41-2.21-1.01-.6-2.32-.6-2.57 0-3.67 2.13-.58 1.11-.58 2.51 0 2.54 1.83 3.77 1.08.72 2.48.72 2.21 0 3.26-1.6.16-.29.29-.58m6.06 1.46h-1.48v-4.08q0-1.87 1.15-3 .45-.43.76-.45.35 0 .63.51.33.58.62.66.12.04.24.04.62 0 .78-.59.05-.13.05-.25 0-.92-.95-1.13-.2-.04-.39-.04-1.23 0-2.19 1.05-.45.49-.72 1.11l-.08-2.03h-2.98v.51h1.54v6.46q0 .94-.53 1.13-.31.1-1.01.1v.51h5.07q0-.45-.31-.49-.08-.02-.2-.02m7.66 0h-1.03v-8.2h-3.18v.51h1.64v6.46q0 .94-.63 1.15-.31.08-1.01.08v.51h4.72q0-.45-.31-.49-.1-.02-.2-.02m-.78-11.2q0-.72-.64-1.02-.24-.11-.47-.11-.72 0-1.03.66-.1.23-.1.47 0 .76.68 1.05.22.08.45.08.72 0 1.01-.66.1-.22.1-.47m6.52 11.2h-.92v-4.43q.06-1.91 1.35-2.75.55-.35 1.13-.35 1.25 0 1.7 1.17.18.47.18 1.07v4.06q0 .94-.53 1.13-.31.1-1 .1v.51h4.61q0-.45-.31-.49-.08-.02-.2-.02h-1.03v-5.09q0-2.05-1.41-2.93-.66-.39-1.42-.39-1.52 0-2.5 1.21-.37.47-.59 1.05l-.09-2.05h-2.97v.51h1.54v6.46q0 .94-.53 1.13-.31.1-1.01.1v.51h4.51q0-.45-.31-.49-.08-.02-.2-.02m9.7-5.18q.04-2.71 2.05-2.73 2.01.04 2.03 2.73-.04 2.79-2.03 2.81-2.03-.04-2.05-2.81m2.07-3.24q-1.85 0-2.93 1.19-.78.88-.78 2.07 0 1.56 1.52 2.59.14.1.28.18-1.31 0-1.64 1.13-.06.26-.06.53.02 1.09.88 1.62-.67.72-.67 1.46 0 1.12 1.33 1.68.84.37 2.07.37 3.12 0 4.12-1.52.33-.51.33-1.09 0-1.76-2.03-2.03-.27-.04-.55-.04l-3.74-.08q-.94-.06-.96-.82 0-.53.68-.68.14-.02.3-.02l1.81.02q1.82 0 2.91-1.23.78-.88.78-2.09-.02-1.54-1.19-2.46.19-.66.7-.78.08-.02.16-.02.29 0 .62.31.22.2.41.2.51-.12.59-.65 0-.64-.59-.86-.23-.09-.45-.09-.97 0-1.56.86-.23.33-.35.72-.92-.47-1.99-.47m0 12.28q-2.03 0-2.56-1.06-.15-.29-.15-.58.02-.55.5-1.1.41.08.67.08l3.16.04q1.54.02 1.78.7.07.16.07.41 0 .9-1.69 1.31-.82.2-1.78.2m9.95-3.35h5.86v-.53h-2.46v-5.52h4.23v-.59h-4.23v-5.13h3.28q1.48 0 2.11 1.99.05.12.07.2l.28.97h.41l-.1-3.69h-9.45v.53h1.64v11.24h-1.64Zm17.78.21q1.58 0 1.74-1.91.02-.12.02-.23l-.53-.02q-.15 1.5-.8 1.52-.54-.04-.56-1.07v-4.32q0-2.94-2.93-3.1h-.37q-2.29 0-3.07 1.07-.25.35-.25.69 0 .64.59.74.11.02.21.02.47 0 .7-.59.28-.76.39-.9.39-.52 1.21-.52 1.92.13 1.99 2.12v1.29q-4.82 0-5.52 2.01-.12.39-.12.84 0 1.56 1.37 2.13.55.23 1.17.23 1.5 0 2.52-1.03.37-.39.56-.82.24 1.83 1.68 1.85m-4.08-.82q-1.25 0-1.54-1.25-.06-.29-.06-.64 0-1.37 1.58-1.74.84-.19 2.44-.21v1.64q-.31 1.42-1.5 1.99-.47.21-.92.21m11.15.1h-1.47v-4.08q0-1.87 1.14-3 .46-.43.76-.45.35 0 .64.51.33.58.61.66.13.04.25.04.62 0 .78-.59.04-.13.04-.25 0-.92-.94-1.13-.21-.04-.39-.04-1.23 0-2.2 1.05-.45.49-.71 1.11l-.09-2.03h-2.97v.51h1.54v6.46q0 .94-.54 1.13-.3.1-1 .1v.51h5.07q0-.45-.31-.49-.08-.02-.21-.02m7.47 0h-.93v-4.43q.07-1.81 1.26-2.69.55-.41 1.1-.41 1.03 0 1.42 1.13.16.49.16 1.11v4.06q0 .94-.45 1.13-.29.1-.98.1v.51h4.41q0-.45-.31-.49-.08-.02-.21-.02h-.92v-5.25q.33-1.5 1.46-2.09.43-.21.82-.21 1.04 0 1.47 1.09.21.51.21 1.17v4.06q0 .94-.45 1.13-.29.1-.99.1v.51h4.53q0-.45-.3-.49-.08-.02-.21-.02h-1.04v-5.09q0-2.11-1.38-2.95-.61-.37-1.33-.37-1.56 0-2.5 1.46-.25.37-.41.78-.37-1.62-1.62-2.1-.37-.14-.76-.14-1.48 0-2.44 1.25-.35.45-.56 1.01l-.08-2.05h-2.97v.51h1.54v6.46q0 .94-.54 1.13-.3.1-1 .1v.51h4.51q0-.43-.31-.49-.1-.02-.2-.02m17.22-7.9q1.44 0 1.91 1.21.17.39.17.84 0 1.03-.99 1.25-.51.11-1.46.09l-2.17-.06q.1-2.36 1.54-3.08.47-.25 1-.25m3.57 6.44-.51-.18q-.72 1.56-2.32 1.76-.2.02-.39.02-2.15 0-2.7-2.56-.17-.72-.19-1.58l2.46.04q2.5.04 3.22-.47.56-.41.56-1.17 0-1.39-1.42-2.21-1-.6-2.32-.6-2.56 0-3.67 2.13-.57 1.11-.57 2.51 0 2.54 1.82 3.77 1.09.72 2.48.72 2.22 0 3.27-1.6.16-.29.28-.58m6.05 1.46h-1.47v-4.08q0-1.87 1.14-3 .46-.43.76-.45.35 0 .64.51.33.58.61.66.13.04.25.04.61 0 .78-.59.04-.13.04-.25 0-.92-.94-1.13-.21-.04-.39-.04-1.23 0-2.2 1.05-.45.49-.72 1.11l-.08-2.03h-2.97v.51h1.54v6.46q0 .94-.54 1.13-.3.1-1 .1v.51h5.06q0-.45-.3-.49-.08-.02-.21-.02m6.75.15q1.41 0 1.91-.86.18-.31.18-.68 0-.86-1.25-1.47-.27-.15-.88-.41-1.68-.7-2.24-1.31-.59-.68-.59-1.58 0-1.42 1.56-1.99.71-.27 1.56-.27 1.35 0 2.33.57 0-.59.29-.67.12-.02.27-.02v2.56h-.54q-.04-1.89-2.09-1.91-1.54 0-1.91.91-.1.24-.1.51 0 .88 1.27 1.5.29.14.91.39 1.66.67 2.21 1.29.6.65.6 1.56 0 1.66-1.77 2.21-.68.23-1.47.23-1.48-.02-2.57-.74 0 .53-.26.61-.13.02-.29.02v-3.11h.57q.04 2.64 2.3 2.66m7.44-.4q0-1.1-.82-1.31-.16-.04-.3-.04-.66 0-.91.61-.08.21-.08.41 0 .66.66.91.1.02.16.04.45.12.47.35-.02.55-.9 1.47l.43.31q1.25-1.35 1.29-2.75m18.44-4.78h-5.11v.54h1.85v3.2q-1.03 1.23-2.75 1.37-.16.02-.33.02-4.08-.04-4.1-5.74 0-4.88 2.95-5.66.52-.12 1.09-.12 2.11 0 3.06 1.16.61.8 1.1 2.51h.54l-.1-3.98-1.79.37q-1.29-.64-2.75-.64-2.46 0-4.22 1.62-1.93 1.79-1.93 4.66 0 3.28 2.34 5.12 1.7 1.32 3.81 1.32 1.54 0 2.79-.68.17-.08.27-.16l1.74.63v-5h1.54Zm5.82 5.03h-1.47v-4.08q0-1.87 1.15-3 .45-.43.75-.45.35 0 .64.51.33.58.62.66.12.04.24.04.62 0 .78-.59.04-.13.04-.25 0-.92-.94-1.13-.21-.04-.39-.04-1.23 0-2.2 1.05-.45.49-.71 1.11l-.08-2.03h-2.98v.51h1.54v6.46q0 .94-.53 1.13-.31.1-1.01.1v.51h5.07q0-.45-.31-.49-.08-.02-.21-.02m5.42-3.86q0-3.18 1.74-3.87.45-.17.94-.17 2.28 0 2.65 2.87.06.5.06 1.09 0 3.45-1.88 4.04-.37.1-.76.1-2.08 0-2.61-2.46-.14-.71-.14-1.6m2.75-4.55q-1.97 0-3.29 1.35-1.2 1.25-1.2 3.12 0 2.59 1.88 3.88 1.15.78 2.54.78 1.97 0 3.27-1.4 1.18-1.27 1.18-3.18 0-2.58-1.9-3.83-1.13-.72-2.48-.72m7.85.71h1.54v-.51h-4.06v.51h.92l2.56 6.87q.44 1.17.89 1.35.22.08.55.08h.41l1.78-5.37 1.38 3.94q.39 1.15.8 1.35.2.08.55.08h.33l2.48-7.56q.21-.64.49-.72.11-.02.23-.02.45 0 .51-.29.02-.1.02-.22h-3.03v.51h1.43l-2.27 7.07-2.4-7.07h1.43v-.51h-3.16l.93 2.6-1.7 5.04Zm16.2 7.7h-1.02v-8.2h-3.18v.51h1.64v6.46q0 .94-.64 1.15-.3.08-1 .08v.51h4.71q0-.45-.3-.49-.11-.02-.21-.02m-.78-11.2q0-.72-.63-1.02-.25-.11-.47-.11-.72 0-1.03.66-.1.23-.1.47 0 .76.67 1.05.23.08.46.08.71 0 1-.66.1-.22.1-.47m6.52 11.2h-.92v-4.43q.06-1.91 1.35-2.75.56-.35 1.13-.35 1.25 0 1.7 1.17.19.47.19 1.07v4.06q0 .94-.53 1.13-.31.1-1.01.1v.51h4.62q0-.45-.31-.49-.08-.02-.21-.02h-1.02v-5.09q0-2.05-1.42-2.93-.65-.39-1.41-.39-1.52 0-2.5 1.21-.37.47-.6 1.05l-.08-2.05h-2.97v.51h1.53v6.46q0 .94-.53 1.13-.31.1-1 .1v.51h4.51q0-.45-.31-.49-.08-.02-.21-.02m9.7-5.18q.05-2.71 2.06-2.73 2 .04 2.03 2.73-.05 2.79-2.03 2.81-2.04-.04-2.06-2.81m2.08-3.24q-1.85 0-2.94 1.19-.78.88-.78 2.07 0 1.56 1.52 2.59.14.1.29.18-1.31 0-1.64 1.13-.06.26-.06.53.02 1.09.88 1.62-.68.72-.68 1.46 0 1.12 1.33 1.68.85.37 2.08.37 3.11 0 4.12-1.52.33-.51.33-1.09 0-1.76-2.03-2.03-.27-.04-.56-.04l-3.73-.08q-.94-.06-.96-.82 0-.53.67-.68.15-.02.31-.02l1.8.02q1.83 0 2.92-1.23.78-.88.78-2.09-.02-1.54-1.19-2.46.18-.66.69-.78.09-.02.17-.02.28 0 .61.31.23.2.41.2.52-.12.6-.65 0-.64-.6-.86-.22-.09-.45-.09-.96 0-1.56.86-.22.33-.35.72-.92-.47-1.98-.47m0 12.28q-2.03 0-2.57-1.06-.14-.29-.14-.58.02-.55.49-1.1.41.08.68.08l3.16.04q1.53.02 1.78.7.06.16.06.41 0 .9-1.68 1.31-.82.2-1.78.2m12.14-3.35h5.64q0-.45-.33-.51-.1-.02-.21-.02h-1.39v-11.24h1.19q1.66 0 2.21 2.01 0 .08.02.12l.33 1.38h.58l-.11-4.04h-10.13l-.1 4.04h.57l.33-1.38q.66-2.01 2.24-2.13h1.1v11.24h-1.94Zm11.32-4.37q0-3.18 1.74-3.87.45-.17.94-.17 2.28 0 2.65 2.87.06.5.06 1.09 0 3.45-1.89 4.04-.37.1-.76.1-2.07 0-2.6-2.46-.14-.71-.14-1.6m2.74-4.55q-1.96 0-3.28 1.35-1.21 1.25-1.21 3.12 0 2.59 1.89 3.88 1.15.78 2.54.78 1.97 0 3.26-1.4 1.19-1.27 1.19-3.18 0-2.58-1.9-3.83-1.13-.72-2.49-.72m7.89 3.23q.04-2.71 2.05-2.73 2.01.04 2.03 2.73-.04 2.79-2.03 2.81-2.03-.04-2.05-2.81m2.07-3.24q-1.84 0-2.93 1.19-.78.88-.78 2.07 0 1.56 1.52 2.59.14.1.28.18-1.31 0-1.64 1.13-.06.26-.06.53.02 1.09.88 1.62-.67.72-.67 1.46 0 1.12 1.33 1.68.84.37 2.07.37 3.12 0 4.12-1.52.33-.51.33-1.09 0-1.76-2.03-2.03-.27-.04-.55-.04l-3.74-.08q-.94-.06-.96-.82 0-.53.68-.68.14-.02.31-.02l1.8.02q1.83 0 2.91-1.23.78-.88.78-2.09-.02-1.54-1.19-2.46.19-.66.7-.78.08-.02.16-.02.29 0 .62.31.22.2.41.2.51-.12.59-.65 0-.64-.59-.86-.23-.09-.45-.09-.97 0-1.56.86-.23.33-.35.72-.92-.47-1.99-.47m0 12.28q-2.03 0-2.56-1.06-.15-.29-.15-.58.02-.55.5-1.1.41.08.67.08l3.16.04q1.54.02 1.79.7.06.16.06.41 0 .9-1.68 1.31-.83.2-1.79.2m10.22-11.76q1.44 0 1.91 1.21.17.39.17.84 0 1.03-.99 1.25-.51.11-1.45.09l-2.18-.06q.1-2.36 1.54-3.08.47-.25 1-.25m3.57 6.44-.51-.18q-.72 1.56-2.32 1.76-.2.02-.39.02-2.15 0-2.7-2.56-.17-.72-.19-1.58l2.46.04q2.5.04 3.22-.47.56-.41.56-1.17 0-1.39-1.42-2.21-1-.6-2.32-.6-2.56 0-3.67 2.13-.57 1.11-.57 2.51 0 2.54 1.82 3.77 1.09.72 2.48.72 2.22 0 3.27-1.6.16-.29.28-.58m1.25-6.74v.51h1.44v5.78q.14 2.56 2.36 2.65 1.88 0 2.36-2.32v-.04l-.56-.1q-.51 1.7-1.49 1.84-1.11-.04-1.13-1.58v-6.23h3.18v-.51h-3.18v-2.38l-1.54.43v1.95Zm11.03 8.19h-1.03v-4.43q0-1.87 1.29-2.71.54-.35 1.11-.35 1.25 0 1.74 1.17.23.56.23 1.23v3.86q0 .94-.45 1.13-.29.1-.99.1v.51h4.52q0-.45-.31-.49-.08-.02-.21-.02h-1.02v-5.09q0-2.23-1.48-3.03-.57-.29-1.23-.29-1.52 0-2.54 1.11-.43.47-.66 1.06v-6.58h-3.08v.51h1.54v11.08q0 .94-.53 1.13-.31.1-1.01.1v.51h4.62q0-.45-.31-.49-.08-.02-.2-.02m12.04-7.89q1.44 0 1.91 1.21.17.39.17.84 0 1.03-.99 1.25-.51.11-1.45.09l-2.18-.06q.1-2.36 1.54-3.08.47-.25 1-.25m3.57 6.44-.51-.18q-.72 1.56-2.32 1.76-.2.02-.39.02-2.15 0-2.7-2.56-.17-.72-.19-1.58l2.46.04q2.5.04 3.22-.47.56-.41.56-1.17 0-1.39-1.42-2.21-1-.6-2.32-.6-2.56 0-3.67 2.13-.57 1.11-.57 2.51 0 2.54 1.82 3.77 1.09.72 2.49.72 2.21 0 3.26-1.6.16-.29.28-.58m6.05 1.46h-1.47v-4.08q0-1.87 1.14-3 .46-.43.76-.45.35 0 .64.51.33.58.61.66.13.04.25.04.62 0 .78-.59.04-.13.04-.25 0-.92-.94-1.13-.21-.04-.39-.04-1.23 0-2.2 1.05-.45.49-.71 1.11l-.09-2.03h-2.97v.51h1.54v6.46q0 .94-.53 1.13-.31.1-1.01.1v.51h5.07q0-.45-.31-.49-.08-.02-.21-.02m5.97-.44q0-.68-.61-.97-.21-.1-.44-.1-.67 0-.94.62-.1.22-.1.45 0 .65.59.94.23.1.45.1.66 0 .95-.59.1-.23.1-.45"/><path fill="#278c2c" d="M641.572 732.847a40.09 40.09 0 0 0-56.9 0l-8.43 8.43-8.43-8.43a40.09 40.09 0 0 0-56.9 0c-15.678 15.827-15.678 41.33 0 57.157l63.532 63.84a2.57 2.57 0 0 0 3.65 0l63.478-63.865c15.687-15.82 15.698-41.324.026-57.157m-65.355 101.232-7.71-17.99 7.71-15.42 7.71 15.42Zm56.463-51.374a12.85 12.85 0 1 0-15.266 0 12.85 12.85 0 0 0-12.927 12.927v24.363l-2.57 2.57v-15.368a14.21 14.21 0 0 0-14.238-14.238c5.556-6.174 5.224-15.639-.751-21.408s-15.446-5.769-21.422 0c-5.975 5.77-6.307 15.234-.751 21.408a14.21 14.21 0 0 0-14.238 14.238v15.394l-2.57-2.596v-26.933a12.927 12.927 0 0 0-12.927-12.927 12.85 12.85 0 1 0-15.266 0 12.85 12.85 0 0 0-8.121 2.93c-10.832-14.07-9.59-33.98 2.904-46.595a34.95 34.95 0 0 1 49.6 0l10.28 10.28a2.65 2.65 0 0 0 3.599 0l10.28-10.28a34.95 34.95 0 0 1 49.6 0c13.032 13.19 13.704 34.192 1.543 48.188a12.85 12.85 0 0 0-6.76-1.953m10.358 56.514h5.14v5.14h-5.14Zm0 10.28h5.14v5.14h-5.14Zm5.14-5.14h5.14v5.14h-5.14Zm-10.28 0h5.14v5.14h-5.14Zm-133.64-25.7h5.14v5.14h-5.14Zm0 10.28h5.14v5.14h-5.14Zm5.14-5.14h5.14v5.14h-5.14Zm-10.28 0h5.14v5.14h-5.14Zm138.78-118.22h5.14v5.14h-5.14Zm0 10.28h5.14v5.14h-5.14Zm5.14-5.14h5.14v5.14h-5.14Zm-10.28 0h5.14v5.14h-5.14Zm-128.5-10.28h5.14v5.14h-5.14Zm0 10.28h5.14v5.14h-5.14Zm5.14-5.14h5.14v5.14h-5.14Zm-10.28 0h5.14v5.14h-5.14Z"/></g><path fill="transparent" stroke="transparent" stroke-width="1.855" d="M250 604.36h1000v291.28H250z"/></g></svg>