<svg xmlns="http://www.w3.org/2000/svg" xml:space="preserve" width="1500" height="1500" data-id="lg_ns9wr8WiuD4Ht1ppvS" data-version="1" viewBox="0 0 1500 1500"><path fill="#333" stroke="transparent" d="M0 0h1500v1500H0z"/><g data-padding="20"><g transform="translate(-457.178 -468.408)scale(1.5781)"><rect width="408.724" height="20.34" x="66.717" y="362.088" fill="none" rx="0" ry="0" transform="translate(391.62 485.29)"/><path fill="#2e6f40" d="M556.039 851.128v.77l-.98.18-3.62 5.99v3.89q0 .14.1.26t.28.14l1.15.07v.77h-4.86v-.77l1.12-.07q.19-.02.29-.14t.1-.26v-3.62l-3.45-6.23-1.05-.21v-.77h4.28v.77l-.91.09q-.25.03-.25.21 0 .09.04.15l2.54 4.7 2.79-4.65q.03-.06.03-.12 0-.22-.25-.26l-1.01-.12v-.77Zm9.13 7.76q0 1.27-.53 2.31-.53 1.03-1.49 1.63t-2.28.6q-1.31 0-2.27-.59-.96-.6-1.48-1.63t-.52-2.32q0-1.28.53-2.32.52-1.04 1.49-1.64.97-.61 2.3-.61 1.34 0 2.29.61.95.62 1.45 1.66.51 1.03.51 2.3m-1.88-.02q0-.98-.26-1.84-.26-.85-.79-1.38-.53-.52-1.34-.52-.83 0-1.36.52-.54.53-.79 1.38-.26.86-.26 1.84t.26 1.83q.26.86.79 1.39.54.53 1.34.53.83 0 1.36-.53t.79-1.38.26-1.84m12.14 3.64v.7h-2.86v-1.02q-.31.23-.78.52-.48.29-1.02.51-.55.21-1.08.21-1.16 0-1.83-.7-.66-.69-.66-2.21v-4.88h-1.26v-.62l2.22-.7h.72v5.85q0 .96.39 1.5.39.53 1.35.53.55 0 1.09-.19.53-.19.86-.34v-6.03h-1.27v-.62l2.2-.7h.74v7.74q0 .17.12.27.12.11.27.13Zm7.02-7.93v1.79h-.7q-.17-.21-.4-.35-.23-.15-.57-.15-.43 0-.88.3t-.92.82v5.06q0 .38.38.4l1.19.05v.7h-4.5v-.68l.88-.07q.16-.02.27-.13.11-.1.11-.27v-6.25h-1.3v-.59l2.23-.68h.74v1.6q.27-.29.66-.72.4-.43.84-.77.45-.33.87-.33.29 0 .61.09.33.08.49.18m17.57.18q0 1.32-.62 2.19-.63.87-1.68 1.3-1.06.44-2.35.44h-.05q-.35 0-.78-.03-.43-.04-.5-.04v3.34q0 .14.1.26.09.12.28.14l1.19.07v.77h-4.73v-.77l.95-.07q.19-.02.29-.14t.1-.26v-9.59q0-.14-.1-.26-.1-.13-.29-.14l-1.08-.07v-.77h4.3q2.55 0 3.76.81 1.21.82 1.21 2.82m-1.87.02q0-1.31-.74-2.04-.73-.73-2.45-.73h-.58l-.34.01v5.67q.05 0 .4.05.36.05.61.05h.06q1.39 0 2.22-.73.82-.73.82-2.28m11.23 7.73v.7h-2.67l-.23-1.06-.27.19q-.27.2-.71.45-.44.26-.97.45t-1.06.19q-.98 0-1.66-.65t-.68-1.78q0-.5.18-.93t.72-.82q.54-.4 1.61-.77t2.84-.76v-.77q0-1.78-1.68-1.78-.47 0-.81.09t-.47.14v1.56h-1.31q-.24 0-.45-.09t-.21-.42q0-.74.56-1.21t1.43-.7q.86-.22 1.75-.22 1.12 0 1.73.35.62.34.86.95.25.61.25 1.4v5.04q0 .17.11.27.11.11.27.13Zm-2.9-.99v-3.11q-1.22.29-1.93.6-.72.3-1.07.6-.35.31-.46.62t-.11.65q0 .55.35 1.02.36.47 1 .47.36 0 .75-.13.38-.13.72-.3.33-.17.54-.3Zm9.83-6.94v1.79h-.7q-.17-.21-.4-.35-.23-.15-.57-.15-.43 0-.88.3t-.92.82v5.06q0 .38.38.4l1.19.05v.7h-4.5v-.68l.89-.07q.15-.02.26-.13.11-.1.11-.27v-6.25h-1.3v-.59l2.23-.68h.74v1.6q.27-.29.66-.72.4-.43.85-.77.44-.33.87-.33.28 0 .6.09.33.08.49.18m5.97 7.52v.73l-.34.14q-.34.15-.89.3t-1.2.15q-1.01 0-1.47-.48-.46-.47-.46-1.54v-5.97h-1.15v-.59l1.23-.58.81-1.91h.79v2.18h2.54v.9h-2.54v5.02q0 1.07.36 1.52.36.44 1.08.44.53 0 .88-.15Zm9.75.4v.7h-3.97v-.7l.75-.05q.16-.02.27-.13.11-.1.11-.27v-4.68q0-.86-.4-1.3-.39-.44-1.33-.44-.51 0-1.02.14-.5.15-.96.38v5.9q0 .37.38.4l.75.05v.7h-4.07v-.7l.88-.05q.38-.03.38-.4v-6.25h-1.26v-.59l2.2-.68h.74v.9q.76-.44 1.55-.78.8-.34 1.42-.34 1.18 0 1.79.73.62.74.62 2.05v4.96q0 .17.11.27.11.11.27.13Zm8.35-1.28v1.1q-.75.46-1.63.79-.87.32-1.79.32-1.09 0-2.04-.48-.95-.49-1.54-1.49-.59-.99-.59-2.49 0-1.41.54-2.45.55-1.05 1.51-1.63.95-.57 2.18-.57 1.67 0 2.52 1.04.84 1.04.84 2.65v.23q0 .15-.02.27h-5.83q0 .69.14 1.37.15.68.49 1.23.34.56.92.89t1.45.33q.78 0 1.51-.35.74-.36 1.34-.76m-5.76-3.52h3.96v-.39q0-.89-.43-1.5-.42-.6-1.32-.6-.89 0-1.51.66-.62.67-.7 1.83m13.01-3.12v1.79h-.71q-.16-.21-.4-.35-.23-.15-.56-.15-.43 0-.89.3-.45.3-.92.82v5.06q0 .38.38.4l1.19.05v.7h-4.5v-.68l.89-.07q.15-.02.26-.13.11-.1.11-.27v-6.25h-1.3v-.59l2.24-.68h.73v1.6q.27-.29.66-.72.4-.43.85-.77.45-.33.87-.33.28 0 .6.09.33.08.5.18m11.77-3.02q0 .45-.31.78-.32.33-.78.33-.45 0-.78-.33t-.33-.78q0-.47.33-.78.33-.32.78-.32.46 0 .78.32.31.31.31.78m.93 10.94v.7h-4.23v-.7l.88-.05q.37-.03.37-.4v-6.42h-1.23v-.64l2.19-.68h.71v7.74q0 .17.11.27.11.11.27.13Zm10.25 0v.7h-3.97v-.7l.75-.05q.16-.02.27-.13.11-.1.11-.27v-4.68q0-.86-.4-1.3-.39-.44-1.33-.44-.51 0-1.02.14-.5.15-.96.38v5.9q0 .37.38.4l.75.05v.7h-4.07v-.7l.88-.05q.38-.03.38-.4v-6.25h-1.26v-.59l2.2-.68h.74v.9q.76-.44 1.55-.78.8-.34 1.42-.34 1.18 0 1.79.73.62.74.62 2.05v4.96q0 .17.11.27.11.11.27.13Zm18.22-2.86q0 1.08-.44 1.78t-1.14 1.09-1.49.54-1.5.15h-5.04v-.77l.95-.07q.19-.02.28-.14.1-.12.1-.26v-9.59q0-.14-.1-.26-.09-.13-.28-.14l-.95-.07v-.77h4.82q2.15 0 3.1.77t.95 2.13q0 .89-.43 1.46-.42.56-1.03.86-.6.31-1.13.45.8 0 1.57.26.76.27 1.26.89t.5 1.69m-2.68-5.49q0-1.05-.69-1.63-.69-.57-2.08-.57-.28 0-.61.03-.32.03-.42.03v4.55l.25.01q.25.01.4.01 1.76 0 2.45-.64.7-.63.7-1.79m.72 5.63q0-1.23-.74-1.8-.73-.57-2.16-.57-.29 0-.65.03-.36.02-.64.05t-.33.03v4.75l.21.02q.2.01.47.02t.44.01q1.88 0 2.64-.63t.76-1.91m10.65 1.44v1.1q-.75.46-1.63.79-.87.32-1.79.32-1.09 0-2.04-.48-.95-.49-1.54-1.49-.59-.99-.59-2.49 0-1.41.54-2.45.55-1.05 1.51-1.63.95-.57 2.18-.57 1.68 0 2.52 1.04t.84 2.65v.23q0 .15-.01.27h-5.84q0 .69.14 1.37.15.68.49 1.23.34.56.92.89t1.45.33q.78 0 1.51-.35.74-.36 1.34-.76m-5.75-3.52h3.95v-.39q0-.89-.43-1.5-.42-.6-1.32-.6-.89 0-1.51.66-.62.67-.69 1.83m12.15 4.4v.73l-.34.14q-.34.15-.89.3t-1.2.15q-1.01 0-1.47-.48-.46-.47-.46-1.54v-5.97h-1.15v-.59l1.23-.58.8-1.91h.8v2.18h2.54v.9h-2.54v5.02q0 1.07.36 1.52.36.44 1.08.44.52 0 .88-.15Zm5.89 0v.73l-.34.14q-.34.15-.89.3t-1.2.15q-1.01 0-1.47-.48-.46-.47-.46-1.54v-5.97h-1.15v-.59l1.23-.58.81-1.91h.79v2.18h2.54v.9h-2.54v5.02q0 1.07.36 1.52.36.44 1.08.44.53 0 .88-.15Zm8.12-.88v1.1q-.75.46-1.63.79-.87.32-1.79.32-1.09 0-2.04-.48-.95-.49-1.54-1.49-.59-.99-.59-2.49 0-1.41.54-2.45.55-1.05 1.51-1.63.96-.57 2.18-.57 1.68 0 2.52 1.04t.84 2.65v.23q0 .15-.01.27h-5.84q0 .69.14 1.37.15.68.49 1.23.35.56.93.89t1.45.33q.77 0 1.5-.35.74-.36 1.34-.76m-5.75-3.52h3.95v-.39q0-.89-.42-1.5-.43-.6-1.33-.6-.89 0-1.51.66-.62.67-.69 1.83m13.01-3.12v1.79h-.71q-.16-.21-.4-.35-.23-.15-.56-.15-.43 0-.89.3-.45.3-.91.82v5.06q0 .38.37.4l1.19.05v.7h-4.5v-.68l.89-.07q.16-.02.27-.13.11-.1.11-.27v-6.25h-1.3v-.59l2.23-.68h.74v1.6q.26-.29.66-.72.39-.43.84-.77.45-.33.87-.33.28 0 .61.09.32.08.49.18m18.95-3.45v.77l-.98.18-3.62 5.99v3.89q0 .14.1.26.09.12.28.14l1.15.07v.77h-4.86v-.77l1.11-.07q.2-.02.3-.14t.1-.26v-3.62l-3.45-6.23-1.05-.21v-.77h4.27v.77l-.9.09q-.25.03-.25.21 0 .09.04.15l2.54 4.7 2.78-4.65q.04-.06.04-.12 0-.22-.25-.26l-1.01-.12v-.77Zm3.87.43q0 .45-.32.78t-.77.33q-.46 0-.79-.33t-.33-.78q0-.47.33-.78.33-.32.79-.32.45 0 .77.32.32.31.32.78m.92 10.94v.7h-4.23v-.7l.88-.05q.38-.03.38-.4v-6.42h-1.24v-.64l2.2-.68h.71v7.74q0 .17.11.27.11.11.27.13Zm8.62-1.28v1.1q-.76.46-1.63.79-.88.32-1.79.32-1.09 0-2.05-.48-.95-.49-1.54-1.49-.59-.99-.59-2.49 0-1.41.55-2.45.54-1.05 1.5-1.63.96-.57 2.18-.57 1.68 0 2.52 1.04.85 1.04.85 2.65v.23q0 .15-.02.27h-5.84q0 .69.15 1.37.14.68.49 1.23.34.56.92.89t1.45.33q.77 0 1.51-.35.73-.36 1.34-.76m-5.76-3.52h3.95v-.39q0-.89-.42-1.5-.43-.6-1.32-.6t-1.52.66q-.62.67-.69 1.83m11.02 4.8v.7h-4.38v-.7l.96-.05q.12 0 .26-.13.13-.14.13-.25v-10.84h-1.37v-.59l2.3-.7h.74v12.13q0 .11.13.25.14.13.25.13Zm9.94 0v.7h-2.83v-.95q-.62.47-1.31.82t-1.48.35q-.9 0-1.56-.38-.65-.38-1.07-1.01-.42-.64-.62-1.4-.2-.77-.2-1.53 0-1.22.5-2.32.5-1.09 1.52-1.78t2.57-.69q.43 0 .93.08.51.09.72.14v-3.3h-1.36v-.59l2.32-.7h.72v12.11q0 .37.38.4Zm-2.83-.93v-6.13q-.23-.08-.68-.17t-.85-.09q-1.34 0-2.14.99t-.8 2.62q0 1.47.69 2.44.69.96 1.92.96.55 0 1.03-.2.48-.21.83-.42m9.64-.97q0 1.33-.92 2.08-.91.75-2.52.75-.83 0-1.52-.17-.7-.17-.98-.28v-2.39h.92l.22 1.52q.27.18.67.34.4.17.93.17.77 0 1.19-.43.42-.44.42-.97 0-.71-.51-1.08-.5-.36-1.45-.81l-.23-.12q-.99-.46-1.51-.97-.52-.5-.52-1.31 0-1.2.84-1.91.84-.7 2.4-.7.79 0 1.41.14.62.15.89.27v2.13h-.94l-.14-1.26q-.19-.15-.57-.28t-.8-.13q-.74 0-1.1.34t-.36.86q0 .61.44.97.43.35 1.57.87.95.43 1.56.96t.61 1.41"/><rect width="588.36" height="79.1" x="-23.101" y="332.708" fill="none" rx="0" ry="0" transform="translate(506.32 447.29)"/><path fill="#2e6f40" d="M484.469 793.368v-1.33h21.35v1.33h-3.85v22.12l.56-.14 19.74-21.98h-5.53v-1.33h12.25v1.33h-4.2l-12.04 13.44 16.8 32.9h3.78v1.33h-22.47v-1.33h3.29l-11.55-22.33-.63.14v22.19h3.85v1.33h-21.35v-1.33h3.85v-46.34Zm60.63 9.51q-3.71 0-5.29-1.89-1.57-1.89-1.57-4.69t1.71-4.62q1.72-1.82 5.22-1.82t5.32 1.65q1.82 1.64 1.82 4.69 0 3.04-1.75 4.86t-5.46 1.82m-10.57 6.09v-1.26h17.15v32.06h3.92v1.26h-20.79v-1.26h3.85v-30.8Zm22.19-19.17v-1.26h17.15v51.24h3.92v1.26h-20.79v-1.26h3.85v-49.98Zm32.68 13.08q-3.71 0-5.29-1.89-1.57-1.89-1.57-4.69t1.71-4.62q1.72-1.82 5.22-1.82t5.32 1.65q1.82 1.64 1.82 4.69 0 3.04-1.75 4.86t-5.46 1.82m-10.57 6.09v-1.26h17.15v32.06h3.92v1.26h-20.79v-1.26h3.85v-30.8Zm22.47.01v-1.26h16.87v6.44q2.31-7.14 10.18-7.14 7.88 0 9.56 7.56 2.45-7.56 10.29-7.56 10.29 0 10.29 11.69v21.07h3.92v1.26h-19.39v-1.26h2.45v-22.75q0-5.32-.91-6.23-.42-.42-1.12-.42-2.03 0-3.57 2.73t-1.54 6.93v19.74h2.52v1.26h-17.99v-1.26h2.45v-22.75q0-5.32-.91-6.23-.42-.42-1.12-.42-1.96 0-3.54 2.98-1.57 2.97-1.57 7.1v19.32h2.52v1.26h-19.39v-1.26h3.85v-30.8Zm84.77 18.27v-5.95q0-6.79-.74-9.9-.73-3.12-3.39-3.12-1.54 0-2.49.88-.94.87-1.36 2.9-.63 3.15-.63 9.59v5.46q0 7.63.45 9.17.46 1.54.95 2.52.77 1.68 3.01 1.68 2.73 0 3.57-3.15.63-2.24.63-10.08m-4.34 14.49q-8.75 0-13.23-4.48t-4.48-12.84q0-8.37 4.79-12.88 4.8-4.52 13.48-4.52t12.95 4.17q4.27 4.16 4.27 12.7 0 17.85-17.78 17.85m20.52-48.37v-1.33h21.84v1.33h-4.06v21.7h13.93v-21.7h-4.13v-1.33h21.91v1.33h-4.13v46.34h4.13v1.33h-21.91v-1.33h4.13v-22.82h-13.93v22.82h4.06v1.33h-21.84v-1.33h4.13v-46.34Zm92.6 46.41v1.26h-15.96l-.77-5.11q-1.12 2.8-3.33 4.31-2.2 1.5-6.54 1.5-10.85 0-10.85-11.69v-21.07h-3.92v-1.26h16.94v24.01q0 4.2.59 5.53.6 1.33 2.38 1.33 1.79 0 3.19-2.17t1.4-6.02v-21.42h-3.22v-1.26h16.24v32.06Zm26.95-17.57q0-7.21-.7-9.69-.7-2.49-2.73-2.49t-3.64 2.52-1.61 6.93v13.02q0 3.01 1.22 5.11 1.23 2.1 3.5 2.1 2.28 0 3.12-3.08t.84-10.78Zm-25.55-33.67h16.87v24.5q2.66-6.02 9.1-6.02 13.09 0 13.09 17.43 0 8.89-3.61 13.09-3.6 4.2-10.81 4.2-3.64 0-5.57-1.12-1.92-1.12-2.62-3.71l-.49 4.13h-15.96v-1.26h3.85v-49.98h-3.85Zm-105.163-13.524 2.88-.806 3.32 11.857-2.872.806Zm-12.883-1.91-4.925-4.179a11.9 11.9 0 0 1-3.208-4.253v5.298c.373.448.82.895 1.268 1.268l4.925 4.18c.82.745 1.492 1.64 1.79 2.76l3.508 12.61 2.91-.82-3.507-12.61c-.522-1.717-1.418-3.135-2.76-4.254m-18.675 3.662h2.986v13.507h-2.985Zm-34.785 9.319 3.32-11.865 2.874.813-3.321 11.858Zm23.943-17.159-4.925 4.179c-1.268 1.12-2.238 2.537-2.686 4.179l-3.507 12.61 2.91.821 3.507-12.61a5.57 5.57 0 0 1 1.79-2.762l4.926-4.178a10 10 0 0 0 1.269-1.269v-5.298a12.4 12.4 0 0 1-3.284 4.328"/><path fill="#2e6f40" d="m653.979 758.083-15.223-4.254c-1.418-5.82-5.15-10.745-10.447-13.58l-8.208-4.478-1.418 2.612 8.208 4.477c4.776 2.612 8.134 7.164 9.104 12.462l.15.895 17.012 4.776 1.045.298v22.163h2.985v-24.476l-.373-.074Z"/><path fill="#2e6f40" d="M610.319 751.573a6.64 6.64 0 0 1-.448-4.477l3.432-12.238c.373-1.269 1.343-2.164 2.463-2.239l12.163-1.268c.447-.075.895.074 1.268.448.448.373.746 1.044.746 1.716v.448c0 .074 0 .223-.074.298l.074-.075 3.73-2.387 4.926-17.238c.224-.82.747-1.492 1.418-1.79.597-.299 1.269-.374 1.866-.15 1.492.523 2.313 2.313 1.865 3.955l-2.985 10.67 3.73-2.387 1.27-4.627c.224-.82.746-1.492 1.418-1.79.597-.299 1.268-.373 1.865-.15 1.045.373 1.716 1.344 1.94 2.463.896-.523 1.79-.97 2.76-1.343-.596-1.791-1.864-3.284-3.655-3.88-1.045-.374-2.164-.374-3.21-.075-.15-2.463-1.64-4.776-3.954-5.522-1.417-.522-2.91-.373-4.253.298a5.82 5.82 0 0 0-2.91 3.582c-.597-.671-1.418-1.194-2.313-1.567-1.418-.522-2.91-.373-4.254.299a5.97 5.97 0 0 0-2.91 3.656l-3.507 12.61-7.238.747c-2.388.224-4.328 2.015-5 4.403l-3.507 12.312a9.32 9.32 0 0 0 .672 6.641l6.044 12.163c.522 1.045.67 2.313.298 3.433l-3.805 13.506 2.91.82 3.806-13.506c.522-1.865.298-3.88-.523-5.596Zm18.804-34.624c.223-.82.746-1.492 1.417-1.79.597-.3 1.269-.374 1.866-.15 1.492.522 2.313 2.313 1.865 3.955l-2.984 10.596c-.075 0-.075-.075-.15-.15-.97-.895-2.238-1.268-3.581-1.119l-1.642.224Z"/><path fill="#2e6f40" d="M633.336 700.41c4.03 4.552 9.626 7.686 15.67 8.73 1.045.224 2.09.299 3.209.299 1.865 0 3.73-.299 5.522-.82l1.94-.598v12.238c-2.686.224-5.373 1.12-7.76 2.612l-23.282 14.924.895.522c.672.373 1.344.746 2.015 1.194l21.79-14.178a14.31 14.31 0 0 1 15.37 0l22.014 14.029c.597-.448 1.268-.821 1.94-1.194l.97-.523-23.356-14.774a17.45 17.45 0 0 0-7.835-2.612v-21.267l1.567.522c1.79.597 3.656.821 5.447.821 1.045 0 2.164-.074 3.209-.298 6.044-1.045 11.566-4.179 15.67-8.73 2.76-3.135 6.417-5.373 10.52-6.343l2.613-.672-2.09-2.09c-4.476-4.327-10.67-6.417-16.714-5.596l-1.12.224c-6.64.895-12.536 4.328-16.64 9.477-1.641 2.09-2.91 4.402-3.73 6.865l-1.045 3.134a11.3 11.3 0 0 0-.597 3.582 23.4 23.4 0 0 0-2.761-4.478c-4.104-5.223-10.074-8.58-16.64-9.476l-.97-.15h-.15c-6.044-.82-12.238 1.269-16.715 5.597l-2.09 2.09 2.613.67c4.03.97 7.685 3.135 10.52 6.269m33.879-12.238a22.9 22.9 0 0 1 14.7-8.357l1.119-.15c4.403-.596 8.88.597 12.46 3.284-3.58 1.343-6.79 3.582-9.401 6.417-3.581 4.03-8.58 6.79-13.954 7.76-2.238.374-4.551.3-6.79-.372 3.507-4.478 10.67-12.089 10.67-12.089l-.15.075a34.7 34.7 0 0 0-11.79 8.88c.822-1.94 1.792-3.806 3.136-5.448m-28.58.523h.075l.97.149a22.68 22.68 0 0 1 14.7 8.432c1.268 1.567 2.238 3.358 2.985 5.298-2.91-2.388-6.343-4.179-10.074-5l8.88 7.91.373.299a14.6 14.6 0 0 1-7.164.447c-5.372-.97-10.297-3.73-13.954-7.76a23.9 23.9 0 0 0-9.402-6.418c3.73-2.686 8.208-3.954 12.61-3.357"/><path fill="#2e6f40" d="M714.415 752.916a9.32 9.32 0 0 0 .672-6.64l-3.433-12.238c-.672-2.463-2.686-4.18-5-4.403l-7.238-.746-3.507-12.611a5.97 5.97 0 0 0-2.91-3.656c-1.343-.672-2.835-.821-4.253-.299-.896.299-1.717.821-2.313 1.567-.448-1.567-1.493-2.91-2.91-3.582-1.344-.671-2.836-.82-4.254-.298a6.04 6.04 0 0 0-3.955 5.522c-1.045-.299-2.164-.299-3.21.074-1.79.597-3.133 2.09-3.655 3.88.97.374 1.866.822 2.76 1.344.15-1.12.896-2.09 1.94-2.463.598-.223 1.27-.149 1.867.15a2.88 2.88 0 0 1 1.417 1.79l1.269 4.552 3.73 2.388-2.312-7.835-.821-2.835c-.448-1.642.373-3.433 1.865-3.955.597-.224 1.269-.15 1.866.149.672.373 1.194.97 1.418 1.79l4.7 17.014 3.732 2.388.149.075v-.672c0-.672.298-1.269.746-1.716a2.02 2.02 0 0 1 1.269-.448l12.163 1.269c1.12.149 2.09 1.044 2.462 2.238l3.433 12.238c.448 1.492.298 3.134-.448 4.477l-6.044 12.163c-.896 1.716-1.045 3.731-.522 5.597l3.805 13.506 2.91-.821-3.805-13.506c-.3-1.12-.224-2.388.298-3.433Zm-19.998-24.624c-1.27-.15-2.537.298-3.582 1.12-.075 0-.075.074-.15.148l-2.984-10.596c-.448-1.641.373-3.432 1.866-3.954.597-.224 1.268-.15 1.865.149.672.373 1.194.97 1.418 1.79l3.208 11.492Z"/><path fill="#2e6f40" d="M693.809 740.249a20.9 20.9 0 0 0-10.446 13.581l-15.222 4.254-2.91.82-.374.075v24.4h2.985v-22.161l1.045-.299 17.013-4.776.15-.895a18.13 18.13 0 0 1 9.103-12.461l8.208-4.478-1.418-2.611Z"/></g><path fill="transparent" stroke="transparent" stroke-width="1.631" d="M250 594.209h1000V905.79H250z"/></g></svg>