<svg xmlns="http://www.w3.org/2000/svg" xml:space="preserve" width="1500" height="1500" data-id="lg_ns9wr8WiuD4Ht1ppvS" data-version="1" viewBox="0 0 1500 1500"><path fill="#969696" stroke="transparent" d="M0 0h1500v1500H0z"/><g data-padding="20"><g transform="translate(-441.626 -452.777)scale(1.55844)"><rect width="408.724" height="20.34" x="100.895" y="354.254" fill="none" rx="0" ry="0" transform="translate(353.3 492.83)"/><path fill="#5e5e5e" d="M551.897 850.824v.78l-.98.17-3.62 6v3.89q0 .13.1.26.09.12.28.14l1.15.07v.77h-4.86v-.77l1.11-.07q.2-.02.3-.14.1-.13.1-.26v-3.62l-3.45-6.23-1.05-.21v-.78h4.27v.78l-.9.09q-.25.03-.25.21 0 .08.03.15l2.54 4.7 2.79-4.65q.04-.06.04-.12 0-.22-.25-.26l-1.01-.12v-.78Zm9.13 7.77q0 1.27-.53 2.3-.52 1.04-1.49 1.64-.96.6-2.28.6-1.31 0-2.26-.6-.96-.59-1.48-1.62t-.52-2.32.52-2.32q.53-1.04 1.5-1.65.97-.6 2.3-.6 1.34 0 2.29.61.95.62 1.45 1.65.5 1.04.5 2.31m-1.87-.02q0-.99-.26-1.84t-.79-1.38-1.34-.53q-.84 0-1.37.53t-.78 1.38q-.26.85-.26 1.84 0 .97.26 1.83t.79 1.39q.53.52 1.34.52.83 0 1.36-.52.53-.53.79-1.38.26-.86.26-1.84m12.13 3.64v.7h-2.85v-1.03q-.31.24-.79.53-.47.29-1.02.5-.54.22-1.08.22-1.16 0-1.82-.7t-.66-2.22v-4.88h-1.26v-.61l2.21-.7h.72v5.85q0 .96.4 1.49.39.54 1.34.54.56 0 1.09-.19.54-.19.87-.35v-6.03h-1.27v-.61l2.2-.7h.74v7.74q0 .17.11.27.12.11.28.12Zm7.02-7.92v1.78h-.7q-.17-.2-.4-.34-.24-.15-.57-.15-.43 0-.88.3-.46.3-.92.82v5.06q0 .38.38.39l1.18.06v.7h-4.5v-.68l.89-.08q.16-.01.27-.12.11-.1.11-.27v-6.25h-1.3v-.59l2.23-.68h.74v1.6q.26-.29.66-.73.39-.43.84-.76t.87-.33q.28 0 .61.08.32.09.49.19m17.58.16q0 1.32-.63 2.19-.62.87-1.68 1.31-1.05.43-2.34.43h-.06q-.35 0-.77-.03-.43-.03-.5-.04v3.35q0 .13.09.26.09.12.29.14l1.18.07v.77h-4.72v-.77l.94-.07q.2-.02.3-.14.1-.13.1-.26v-9.6q0-.13-.1-.26-.1-.12-.3-.13l-1.08-.07v-.78h4.31q2.55 0 3.76.82t1.21 2.81m-1.88.03q0-1.31-.73-2.04-.73-.74-2.46-.74-.24 0-.58.01l-.33.01v5.67q.04 0 .4.05t.61.05h.05q1.4 0 2.22-.73t.82-2.28m11.22 7.73v.7h-2.66l-.24-1.06-.27.19q-.26.19-.7.45-.44.25-.97.45-.54.19-1.06.19-.98 0-1.66-.65t-.68-1.78q0-.51.18-.94t.72-.82 1.61-.76q1.07-.38 2.83-.76v-.78q0-1.77-1.68-1.77-.46 0-.8.09-.34.08-.47.14v1.56h-1.31q-.25 0-.46-.09t-.21-.43q0-.74.56-1.21.57-.47 1.43-.69.87-.22 1.76-.22 1.11 0 1.73.34.61.35.86.96.24.61.24 1.39v5.05q0 .17.11.27.11.11.27.12Zm-2.9-1v-3.11q-1.21.3-1.93.61-.71.3-1.06.6-.36.3-.47.62-.11.31-.11.64 0 .56.36 1.03t1 .47q.36 0 .74-.13.39-.13.73-.3.33-.17.54-.3Zm9.84-6.92v1.78h-.7q-.17-.2-.4-.34-.24-.15-.57-.15-.43 0-.88.3-.46.3-.92.82v5.06q0 .38.38.39l1.18.06v.7h-4.5v-.68l.89-.08q.16-.01.27-.12.11-.1.11-.27v-6.25h-1.3v-.59l2.23-.68h.74v1.6q.26-.29.66-.73.39-.43.84-.76t.87-.33q.28 0 .61.08.32.09.49.19m5.96 7.52v.72l-.33.15q-.34.15-.89.3t-1.2.15q-1.01 0-1.47-.48-.47-.48-.47-1.54v-5.98h-1.15v-.59l1.23-.58.81-1.9h.79v2.18h2.54v.89h-2.54v5.03q0 1.07.36 1.52.36.44 1.08.44.53 0 .89-.15Zm9.75.4v.7h-3.97v-.7l.76-.06q.16-.01.27-.12.11-.1.11-.27v-4.69q0-.85-.4-1.29-.4-.45-1.34-.45-.51 0-1.01.15-.51.14-.96.37v5.91q0 .37.37.39l.76.06v.7h-4.07v-.7l.88-.06q.38-.02.38-.39v-6.25h-1.26v-.59l2.2-.68h.74v.89q.75-.43 1.55-.77.79-.34 1.42-.34 1.17 0 1.79.73t.62 2.04v4.97q0 .17.11.27.11.11.26.12Zm8.36-1.29v1.09q-.76.47-1.63.8-.88.32-1.79.32-1.09 0-2.04-.49-.96-.49-1.55-1.48t-.59-2.49q0-1.41.55-2.46.54-1.04 1.5-1.62.96-.57 2.18-.57 1.68 0 2.52 1.04.85 1.04.85 2.65v.23q0 .15-.02.27h-5.84q0 .68.15 1.37.14.68.49 1.23.34.55.92.89.58.33 1.45.33.77 0 1.51-.35.73-.36 1.34-.76m-5.76-3.52h3.96v-.4q0-.88-.43-1.49t-1.32-.61-1.51.67q-.63.67-.7 1.83m13.01-3.11v1.78h-.7q-.17-.2-.4-.34-.23-.15-.57-.15-.43 0-.88.3t-.92.82v5.06q0 .38.38.39l1.19.06v.7h-4.5v-.68l.88-.08q.16-.01.27-.12.11-.1.11-.27v-6.25h-1.3v-.59l2.23-.68h.74v1.6q.26-.29.66-.73.4-.43.84-.76.45-.33.87-.33.28 0 .61.08.33.09.49.19m11.79-3.03q0 .45-.32.78-.31.33-.77.33t-.79-.33-.33-.78q0-.47.33-.79.33-.31.79-.31t.77.31q.32.32.32.79m.92 10.94v.7h-4.23v-.7l.88-.06q.38-.02.38-.39v-6.43h-1.24v-.63l2.2-.68h.71v7.74q0 .17.11.27.11.11.27.12Zm10.23.01v.7h-3.97v-.7l.76-.06q.16-.01.27-.12.11-.1.11-.27v-4.69q0-.85-.4-1.29-.4-.45-1.34-.45-.51 0-1.01.15-.51.14-.96.37v5.91q0 .37.37.39l.76.06v.7h-4.07v-.7l.88-.06q.38-.02.38-.39v-6.25h-1.26v-.59l2.2-.68h.74v.89q.75-.43 1.55-.77.79-.34 1.42-.34 1.17 0 1.79.73t.62 2.04v4.97q0 .17.11.27.1.11.26.12Zm18.22-2.88q0 1.09-.44 1.79t-1.14 1.09q-.69.39-1.48.54-.8.15-1.51.15h-5.03v-.77l.95-.07q.19-.02.28-.14.09-.13.09-.26v-9.6q0-.13-.09-.26-.09-.12-.28-.13l-.95-.07v-.78h4.81q2.16 0 3.11.78.94.77.94 2.12 0 .9-.42 1.46-.43.57-1.03.87t-1.14.44q.81 0 1.57.27.77.27 1.27.89.49.62.49 1.68m-2.68-5.48q0-1.06-.69-1.63t-2.08-.57q-.28 0-.6.03-.33.02-.42.02v4.56h.25q.25.01.4.01 1.75 0 2.45-.63.69-.63.69-1.79m.72 5.63q0-1.23-.73-1.8-.74-.57-2.17-.57-.29 0-.65.02-.36.03-.64.06-.27.02-.32.02v4.76l.2.01q.21.02.48.03.26.01.43.01 1.89 0 2.65-.63.75-.63.75-1.91m10.66 1.44v1.09q-.76.47-1.63.8-.88.32-1.79.32-1.09 0-2.04-.49-.96-.49-1.55-1.48t-.59-2.49q0-1.41.55-2.46.54-1.04 1.5-1.62.96-.57 2.18-.57 1.68 0 2.52 1.04.85 1.04.85 2.65v.23q0 .15-.02.27h-5.83q0 .68.14 1.37.15.68.49 1.23t.92.89q.58.33 1.45.33.77 0 1.51-.35.73-.36 1.34-.76m-5.76-3.52h3.96v-.4q0-.88-.43-1.49t-1.32-.61-1.51.67q-.63.67-.7 1.83m12.15 4.41v.72l-.34.15q-.33.15-.88.3t-1.2.15q-1.01 0-1.48-.48-.46-.48-.46-1.54v-5.98h-1.15v-.59l1.23-.58.81-1.9h.79v2.18h2.54v.89h-2.54v5.03q0 1.07.36 1.52.36.44 1.08.44.53 0 .89-.15Zm5.9 0v.72l-.34.15q-.33.15-.88.3t-1.2.15q-1.01 0-1.47-.48-.47-.48-.47-1.54v-5.98h-1.15v-.59l1.23-.58.81-1.9h.79v2.18h2.54v.89h-2.54v5.03q0 1.07.36 1.52.36.44 1.08.44.53 0 .89-.15Zm8.12-.89v1.09q-.76.47-1.63.8-.88.32-1.79.32-1.09 0-2.04-.49-.96-.49-1.55-1.48-.58-.99-.58-2.49 0-1.41.54-2.46.55-1.04 1.5-1.62.96-.57 2.18-.57 1.68 0 2.53 1.04.84 1.04.84 2.65v.23q0 .15-.02.27h-5.83q0 .68.14 1.37.15.68.49 1.23t.92.89q.58.33 1.45.33.78 0 1.51-.35.73-.36 1.34-.76m-5.76-3.52h3.96v-.4q0-.88-.43-1.49t-1.32-.61-1.51.67q-.63.67-.7 1.83m13.01-3.11v1.78h-.7q-.17-.2-.4-.34-.23-.15-.57-.15-.43 0-.88.3t-.92.82v5.06q0 .38.38.39l1.19.06v.7h-4.5v-.68l.88-.08q.16-.01.27-.12.11-.1.11-.27v-6.25h-1.3v-.59l2.23-.68h.74v1.6q.27-.29.66-.73.4-.43.85-.76.44-.33.87-.33.28 0 .6.08.33.09.49.19m18.95-3.47v.78l-.97.17-3.62 6v3.89q0 .13.09.26.1.12.28.14l1.15.07v.77h-4.86v-.77l1.12-.07q.19-.02.29-.14.11-.13.11-.26v-3.62l-3.46-6.23-1.04-.21v-.78h4.27v.78l-.91.09q-.24.03-.24.21 0 .08.03.15l2.54 4.7 2.79-4.65q.03-.06.03-.12 0-.22-.24-.26l-1.01-.12v-.78Zm3.88.44q0 .45-.31.78-.32.33-.78.33t-.78-.33q-.33-.33-.33-.78 0-.47.33-.79.32-.31.78-.31t.78.31q.31.32.31.79m.92 10.94v.7h-4.22v-.7l.88-.06q.37-.02.37-.39v-6.43h-1.24v-.63l2.2-.68h.71v7.74q0 .17.11.27.11.11.27.12Zm8.62-1.28v1.09q-.75.47-1.63.8-.87.32-1.79.32-1.09 0-2.04-.49t-1.54-1.48-.59-2.49q0-1.41.54-2.46.55-1.04 1.51-1.62.95-.57 2.18-.57 1.68 0 2.52 1.04t.84 2.65v.23q0 .15-.01.27h-5.84q0 .68.14 1.37.15.68.49 1.23t.92.89q.58.33 1.45.33.78 0 1.51-.35.74-.36 1.34-.76m-5.75-3.52h3.95v-.4q0-.88-.43-1.49-.42-.61-1.32-.61-.89 0-1.51.67t-.69 1.83m11 4.8v.7h-4.37v-.7l.95-.06q.13 0 .26-.13.14-.13.14-.24v-10.84h-1.37v-.6l2.3-.69h.74v12.13q0 .11.13.24t.25.13Zm9.96 0v.7h-2.83v-.96q-.62.48-1.31.83-.7.35-1.48.35-.91 0-1.56-.38-.66-.38-1.07-1.02-.42-.63-.62-1.39-.21-.77-.21-1.53 0-1.23.51-2.32.5-1.09 1.52-1.78t2.56-.69q.43 0 .94.08.5.08.72.14v-3.3h-1.37v-.6l2.32-.69h.72v12.11q0 .37.38.39Zm-2.83-.93v-6.13q-.23-.08-.69-.17-.45-.09-.84-.09-1.34 0-2.14.98-.8.99-.8 2.63 0 1.47.69 2.43.68.97 1.92.97.55 0 1.02-.21.48-.2.84-.41m9.63-.97q0 1.33-.91 2.08-.92.75-2.52.75-.83 0-1.53-.17t-.97-.29v-2.39h.91l.22 1.53q.28.18.68.34t.92.16q.78 0 1.2-.43t.42-.96q0-.72-.51-1.08-.51-.37-1.45-.81l-.24-.12q-.98-.46-1.5-.97-.53-.5-.53-1.31 0-1.21.85-1.91.84-.7 2.4-.7.79 0 1.41.14.62.15.89.27v2.13h-.94l-.14-1.26q-.2-.15-.57-.28-.38-.13-.8-.13-.74 0-1.1.33-.36.34-.36.87 0 .61.43.96.44.36 1.58.88.94.43 1.55.96t.61 1.41"/><rect width="588.36" height="79.1" x="11.077" y="324.874" fill="none" rx="0" ry="0" transform="translate(475.62 454.62)"/><path fill="#5e5e5e" d="m516.157 827.584 8.4-36.05h18.69v1.33h-3.85v46.34h3.85v1.33h-21.35v-1.33h3.85v-43.75h-.28l-10.5 45.08h-8.75l-12.32-45.29h-.28v43.96h3.85v1.33h-9.52v-1.33h3.85v-46.34h-3.85v-1.33h18.9Zm46.35-3.5h2.03v-5.39q0-6.65-.74-8.92-.73-2.28-2.83-2.28-1.26 0-2.28.67-1.01.66-1.01 1.82 0 1.15.42 2.34h1.75q.56 1.47.56 3.54 0 2.06-1.75 3.57-1.75 1.5-4.41 1.5-6.02 0-6.02-5.81 0-8.61 14.63-8.61 8.33 0 11.51 2.84 3.19 2.83 3.19 10.39v14.21q0 3.64 2.03 3.64 2.38 0 2.8-7.21l1.05.07q-.28 6.16-2.31 8.47t-6.65 2.31q-8.4 0-9.66-5.18-.91 2.66-2.73 3.92t-5.32 1.26q-10.36 0-10.36-8.47 0-4.97 3.95-6.82 3.96-1.86 12.15-1.86m-2.8 8.61q0 3.64.38 4.69.39 1.05 1.47 1.05 1.09 0 2.03-1.78.95-1.79.95-4.94v-6.51h-.49q-4.34 0-4.34 6.37Zm27.57-25.48h29.4v1.26l-16.59 30.8h.91q5.88 0 9.24-3.08t5.25-10.01h.98l-1.12 14.35h-29.4v-1.05l16.87-31.01h-.77q-7.07 0-9.84 2.31-2.76 2.31-4.93 9.87h-.91Zm50.05 16.87h2.03v-5.39q0-6.65-.74-8.92-.73-2.28-2.83-2.28-1.26 0-2.28.67-1.01.66-1.01 1.82 0 1.15.42 2.34h1.75q.56 1.47.56 3.54 0 2.06-1.75 3.57-1.75 1.5-4.41 1.5-6.02 0-6.02-5.81 0-8.61 14.63-8.61 8.33 0 11.51 2.84 3.19 2.83 3.19 10.39v14.21q0 3.64 2.03 3.64 2.38 0 2.8-7.21l1.05.07q-.28 6.16-2.31 8.47t-6.65 2.31q-8.4 0-9.66-5.18-.91 2.66-2.73 3.92t-5.32 1.26q-10.36 0-10.36-8.47 0-4.97 3.95-6.82 3.96-1.86 12.15-1.86m-2.8 8.61q0 3.64.38 4.69.39 1.05 1.47 1.05 1.09 0 2.03-1.78.95-1.79.95-4.94v-6.51h-.49q-4.34 0-4.34 6.37Zm47.05-5.95v-5.95q0-6.79-.74-9.9-.73-3.12-3.39-3.12-1.54 0-2.49.88-.94.87-1.36 2.9-.63 3.15-.63 9.59v5.46q0 7.63.45 9.17.46 1.54.95 2.52.77 1.68 3.01 1.68 2.73 0 3.57-3.15.63-2.24.63-10.08m-4.34 14.49q-8.75 0-13.23-4.48t-4.48-12.84q0-8.37 4.79-12.88 4.8-4.52 13.48-4.52t12.95 4.17q4.27 4.16 4.27 12.7 0 17.85-17.78 17.85m20.5-48.37v-1.33h21.84v1.33h-4.06v21.7h13.93v-21.7h-4.13v-1.33h21.91v1.33h-4.13v46.34h4.13v1.33h-21.91v-1.33h4.13v-22.82h-13.93v22.82h4.06v1.33h-21.84v-1.33h4.13v-46.34Zm92.62 46.41v1.26h-15.96l-.77-5.11q-1.12 2.8-3.33 4.31-2.2 1.5-6.54 1.5-10.85 0-10.85-11.69v-21.07h-3.92v-1.26h16.94v24.01q0 4.2.59 5.53.6 1.33 2.38 1.33 1.79 0 3.19-2.17t1.4-6.02v-21.42h-3.22v-1.26h16.24v32.06Zm26.94-17.57q0-7.21-.7-9.69-.7-2.49-2.73-2.49t-3.64 2.52-1.61 6.93v13.02q0 3.01 1.22 5.11 1.23 2.1 3.5 2.1 2.28 0 3.12-3.08t.84-10.78Zm-25.55-33.67h16.87v24.5q2.66-6.02 9.1-6.02 13.09 0 13.09 17.43 0 8.89-3.61 13.09-3.6 4.2-10.81 4.2-3.64 0-5.57-1.12-1.92-1.12-2.62-3.71l-.49 4.13h-15.96v-1.26h3.85v-49.98h-3.85ZM686.934 774.72l2.88-.806 3.32 11.857-2.872.806Zm-12.883-1.91-4.925-4.179a11.9 11.9 0 0 1-3.208-4.253v5.298c.373.448.82.895 1.268 1.268l4.925 4.18c.82.745 1.492 1.64 1.79 2.76l3.508 12.61 2.91-.82-3.507-12.61c-.522-1.717-1.418-3.135-2.76-4.254m-18.675 3.662h2.986v13.507h-2.985Zm-34.785 9.32 3.32-11.866 2.874.813-3.321 11.858Zm23.943-17.16-4.925 4.18c-1.268 1.12-2.238 2.536-2.686 4.178l-3.507 12.61 2.91.821 3.507-12.61a5.57 5.57 0 0 1 1.79-2.762l4.926-4.178a10 10 0 0 0 1.269-1.269v-5.298a12.4 12.4 0 0 1-3.284 4.328"/><path fill="#5e5e5e" d="m649.827 757.79-15.223-4.255c-1.418-5.82-5.15-10.745-10.447-13.58l-8.208-4.478-1.418 2.612 8.208 4.477c4.776 2.612 8.134 7.164 9.104 12.462l.15.895 17.012 4.776 1.045.298v22.163h2.985v-24.476l-.373-.074Z"/><path fill="#5e5e5e" d="M606.167 751.28a6.64 6.64 0 0 1-.448-4.478l3.432-12.238c.373-1.269 1.343-2.164 2.463-2.239l12.163-1.268c.447-.075.895.074 1.268.448.448.373.746 1.044.746 1.716v.448c0 .074 0 .223-.074.298l.074-.075 3.73-2.387 4.926-17.238c.224-.82.747-1.492 1.418-1.79.597-.299 1.269-.374 1.866-.15 1.492.523 2.313 2.313 1.865 3.955l-2.985 10.67 3.73-2.387 1.27-4.627c.224-.82.746-1.492 1.418-1.79.597-.299 1.268-.373 1.865-.15 1.045.373 1.716 1.344 1.94 2.463.896-.523 1.79-.97 2.76-1.343-.596-1.79-1.864-3.284-3.655-3.88-1.045-.374-2.164-.374-3.21-.075-.15-2.463-1.64-4.776-3.954-5.522-1.417-.522-2.91-.373-4.253.298a5.82 5.82 0 0 0-2.91 3.582c-.597-.67-1.418-1.194-2.313-1.567-1.418-.522-2.91-.373-4.254.3a5.97 5.97 0 0 0-2.91 3.655l-3.507 12.61-7.238.747c-2.388.224-4.328 2.015-5 4.403l-3.507 12.312a9.32 9.32 0 0 0 .672 6.641l6.044 12.163c.522 1.045.67 2.313.298 3.433l-3.805 13.506 2.91.82 3.806-13.506c.522-1.865.298-3.88-.523-5.596Zm18.804-34.625c.223-.82.746-1.492 1.417-1.79.597-.3 1.269-.374 1.866-.15 1.492.522 2.313 2.313 1.865 3.955l-2.984 10.596c-.075 0-.075-.075-.15-.15-.97-.895-2.238-1.268-3.581-1.119l-1.642.224Z"/><path fill="#5e5e5e" d="M629.184 700.116c4.03 4.552 9.626 7.686 15.67 8.73 1.045.224 2.09.3 3.209.3 1.865 0 3.73-.3 5.522-.82l1.94-.599v12.238c-2.686.224-5.373 1.12-7.76 2.612l-23.282 14.924.895.522c.672.373 1.344.746 2.015 1.194l21.79-14.178a14.31 14.31 0 0 1 15.37 0l22.014 14.03c.597-.449 1.268-.822 1.94-1.195l.97-.523-23.356-14.774a17.45 17.45 0 0 0-7.835-2.612v-21.267l1.567.522c1.79.597 3.656.821 5.447.821 1.045 0 2.164-.074 3.209-.298 6.044-1.045 11.566-4.179 15.67-8.73 2.76-3.135 6.417-5.373 10.52-6.343l2.613-.672-2.09-2.09c-4.476-4.327-10.67-6.417-16.714-5.596l-1.12.224c-6.64.895-12.536 4.328-16.64 9.477-1.641 2.09-2.91 4.402-3.73 6.865l-1.045 3.134a11.3 11.3 0 0 0-.597 3.582 23.4 23.4 0 0 0-2.761-4.478c-4.104-5.223-10.074-8.58-16.64-9.476l-.97-.15h-.15c-6.044-.82-12.238 1.27-16.715 5.597l-2.09 2.09 2.613.67a20.7 20.7 0 0 1 10.52 6.27m33.879-12.239a22.9 22.9 0 0 1 14.7-8.357l1.119-.15c4.403-.596 8.88.597 12.46 3.284-3.58 1.343-6.79 3.582-9.401 6.417-3.581 4.03-8.58 6.79-13.954 7.76-2.238.374-4.551.3-6.79-.372 3.507-4.478 10.67-12.089 10.67-12.089l-.15.075a34.7 34.7 0 0 0-11.79 8.88c.822-1.94 1.792-3.806 3.136-5.448m-28.58.523h.075l.97.15a22.68 22.68 0 0 1 14.7 8.431c1.268 1.567 2.238 3.358 2.985 5.298-2.91-2.388-6.343-4.179-10.074-5l8.88 7.91.373.3a14.6 14.6 0 0 1-7.164.446c-5.372-.97-10.297-3.73-13.954-7.76a23.9 23.9 0 0 0-9.402-6.418c3.73-2.686 8.208-3.954 12.61-3.357"/><path fill="#5e5e5e" d="M710.263 752.622a9.32 9.32 0 0 0 .672-6.64l-3.433-12.238c-.672-2.463-2.686-4.18-5-4.403l-7.238-.746-3.507-12.61a5.97 5.97 0 0 0-2.91-3.657c-1.343-.672-2.835-.82-4.253-.299-.896.3-1.717.821-2.313 1.567-.448-1.567-1.493-2.91-2.91-3.582-1.344-.67-2.836-.82-4.254-.298a6.04 6.04 0 0 0-3.955 5.522c-1.045-.299-2.164-.299-3.21.074-1.79.597-3.133 2.09-3.655 3.88.97.374 1.866.822 2.76 1.344.15-1.12.896-2.09 1.94-2.463.598-.223 1.27-.149 1.867.15a2.88 2.88 0 0 1 1.417 1.79l1.269 4.552 3.73 2.388-2.312-7.835-.821-2.835c-.448-1.642.373-3.433 1.865-3.955.597-.224 1.269-.15 1.866.15.672.372 1.194.97 1.418 1.79l4.7 17.013 3.732 2.388.149.075v-.672c0-.672.298-1.269.746-1.716a2.02 2.02 0 0 1 1.269-.448l12.163 1.27c1.12.148 2.09 1.043 2.462 2.237l3.433 12.238c.448 1.492.298 3.134-.448 4.477l-6.044 12.163c-.896 1.716-1.045 3.731-.522 5.597l3.805 13.506 2.91-.82-3.805-13.507c-.3-1.12-.224-2.388.298-3.433Zm-19.998-24.624c-1.27-.15-2.537.298-3.582 1.12-.075 0-.075.074-.15.148l-2.984-10.596c-.448-1.64.373-3.432 1.866-3.954.597-.224 1.268-.15 1.865.15.672.372 1.194.97 1.418 1.79l3.208 11.491Z"/><path fill="#5e5e5e" d="M689.657 739.955a20.9 20.9 0 0 0-10.446 13.581l-15.222 4.254-2.91.82-.374.075v24.4h2.985v-22.16l1.045-.3 17.013-4.776.15-.895a18.13 18.13 0 0 1 9.103-12.46l8.208-4.479-1.418-2.61Z"/></g><path fill="transparent" stroke="transparent" stroke-width="1.61" d="M250 596.216h1000v307.568H250z"/></g></svg>